# xmcd CD database file
#
# Track frame offsets:
#	150
#	7437
#	23614
#	43876
#	72095
#	94312
#	127786
#	162095
#	175672
#	186348
#	203598
#	224347
#	242825
#
# Disc length: 3625 seconds
#
# Revision: 0
# Processed by: cddbd v1.5.1PL2 Copyright (c) Steve Scherf et al.
# Submitted via: CDex 1.51
#
DISCID=b10e270d
DTITLE=Nickelback - 2006-03-23-Bobcat Arena-Charlotte, NC[CD1]
DYEAR=2006
DGENRE=Blues
TTITLE0=Intro
TTITLE1=Animals
TTITLE2=Woke Up This Morning
TTITLE3=Photograph
TTITLE4=Leader Of Men
TTITLE5=Someday
TTITLE6=Curb Melody
TTITLE7=Never Again
TTITLE8=T-Shirt toss/Jam
TTITLE9=Savin Me
TTITLE10=Side Of  A Bullet
TTITLE11=Drum Solo
TTITLE12=Follow You Home
EXTD=YEAR: 2006
EXTT0=
EXTT1=
EXTT2=
EXTT3=
EXTT4=
EXTT5=
EXTT6=
EXTT7=
EXTT8=
EXTT9=
EXTT10=
EXTT11=
EXTT12=
PLAYORDER=
